M48
INCH,LZ
T1C0.025
T2C0.032
T3C0.079
%
G90
G05
T1
X048504Y-025118
X048504Y-029803
X048504Y-034488
X048504Y-039173
T2
X04913Y-025158
X04913Y-026063
X04913Y-026969
X04913Y-027874
X04913Y-029843
X04913Y-030748
X04913Y-031654
X04913Y-032559
X04913Y-034528
X04913Y-035433
X04913Y-036339
X04913Y-037244
X04913Y-039213
X04913Y-040118
X04913Y-041024
X04913Y-041929
X05213Y-025158
X05213Y-026063
X05213Y-026969
X05213Y-027874
X05213Y-029843
X05213Y-030748
X05213Y-031654
X05213Y-032559
X05213Y-034528
X05213Y-035433
X05213Y-036339
X05213Y-037244
X05213Y-039213
X05213Y-040118
X05213Y-041024
X05213Y-041929
X052831Y-027874
X052831Y-032559
X052831Y-037244
X052831Y-041929
X055831Y-027874
X055831Y-032559
X055831Y-037244
X055831Y-041929
X056339Y-025036
X056339Y-028036
X056339Y-029721
X056339Y-032721
X056339Y-034406
X056339Y-037406
X056339Y-039091
X056339Y-042091
X057059Y-027953
X057059Y-032638
X057059Y-037323
X057059Y-042008
X057717Y-025012
X057717Y-026012
X057717Y-029697
X057717Y-030697
X057717Y-034382
X057717Y-035382
X057717Y-039067
X057717Y-040067
X058059Y-027953
X058059Y-032638
X058059Y-037323
X058059Y-042008
X058893Y-024958
X058893Y-027958
X058893Y-029643
X058893Y-032643
X058893Y-034328
X058893Y-037328
X058893Y-039013
X058893Y-042013
X059893Y-024958
X059893Y-027958
X059893Y-029643
X059893Y-032643
X059893Y-034328
X059893Y-037328
X059893Y-039013
X059893Y-042013
X060893Y-024958
X060893Y-027958
X060893Y-029643
X060893Y-032643
X060893Y-034328
X060893Y-037328
X060893Y-039013
X060893Y-042013
X061893Y-024958
X061893Y-027958
X061893Y-029643
X061893Y-032643
X061893Y-034328
X061893Y-037328
X061893Y-039013
X061893Y-042013
T3
X063267Y-025434
X063267Y-027599
X063267Y-030119
X063267Y-032284
X063267Y-034804
X063267Y-036969
X063267Y-039489
X063267Y-041654
T0
M30
