G04 (created by PCBNEW-RS274X (2011-12-23 BZR 3325)-testing) date Sunday, March 18, 2012 02:45:14 AM*
G01*
G70*
G90*
%MOIN*%
G04 Gerber Fmt 3.4, Leading zero omitted, Abs format*
%FSLAX34Y34*%
G04 APERTURE LIST*
%ADD10C,0.006000*%
%ADD11C,0.015000*%
%ADD12C,0.160000*%
%ADD13C,0.157500*%
%ADD14C,0.055000*%
%ADD15R,0.055000X0.055000*%
%ADD16C,0.066000*%
%ADD17C,0.035000*%
%ADD18C,0.010000*%
G04 APERTURE END LIST*
G54D10*
G54D11*
X64370Y-42913D02*
X64370Y-24173D01*
X44764Y-42913D02*
X64370Y-42913D01*
X44764Y-24173D02*
X44764Y-42913D01*
X44764Y-24173D02*
X64370Y-24173D01*
G54D12*
X63267Y-27599D03*
G54D13*
X63267Y-25434D03*
G54D14*
X49130Y-26063D03*
X52130Y-26063D03*
X49130Y-25158D03*
X52130Y-25158D03*
X49130Y-26969D03*
X52130Y-26969D03*
X49130Y-27874D03*
X52130Y-27874D03*
G54D15*
X58893Y-27958D03*
G54D14*
X59893Y-27958D03*
X60893Y-27958D03*
X61893Y-27958D03*
X61893Y-24958D03*
X60893Y-24958D03*
X59893Y-24958D03*
X58893Y-24958D03*
G54D15*
X55831Y-27874D03*
G54D14*
X52831Y-27874D03*
G54D15*
X56339Y-25036D03*
G54D14*
X56339Y-28036D03*
X57717Y-25012D03*
X57717Y-26012D03*
G54D12*
X63267Y-32284D03*
G54D13*
X63267Y-30119D03*
G54D14*
X49130Y-30748D03*
X52130Y-30748D03*
X49130Y-29843D03*
X52130Y-29843D03*
X49130Y-31654D03*
X52130Y-31654D03*
X49130Y-32559D03*
X52130Y-32559D03*
G54D15*
X58893Y-32643D03*
G54D14*
X59893Y-32643D03*
X60893Y-32643D03*
X61893Y-32643D03*
X61893Y-29643D03*
X60893Y-29643D03*
X59893Y-29643D03*
X58893Y-29643D03*
G54D15*
X55831Y-32559D03*
G54D14*
X52831Y-32559D03*
G54D15*
X56339Y-29721D03*
G54D14*
X56339Y-32721D03*
X57717Y-29697D03*
X57717Y-30697D03*
G54D12*
X63267Y-36969D03*
G54D13*
X63267Y-34804D03*
G54D14*
X49130Y-35433D03*
X52130Y-35433D03*
X49130Y-34528D03*
X52130Y-34528D03*
X49130Y-36339D03*
X52130Y-36339D03*
X49130Y-37244D03*
X52130Y-37244D03*
G54D15*
X58893Y-37328D03*
G54D14*
X59893Y-37328D03*
X60893Y-37328D03*
X61893Y-37328D03*
X61893Y-34328D03*
X60893Y-34328D03*
X59893Y-34328D03*
X58893Y-34328D03*
G54D15*
X55831Y-37244D03*
G54D14*
X52831Y-37244D03*
G54D15*
X56339Y-34406D03*
G54D14*
X56339Y-37406D03*
X57717Y-34382D03*
X57717Y-35382D03*
G54D12*
X63267Y-41654D03*
G54D13*
X63267Y-39489D03*
G54D14*
X49130Y-40118D03*
X52130Y-40118D03*
X49130Y-39213D03*
X52130Y-39213D03*
X49130Y-41024D03*
X52130Y-41024D03*
X49130Y-41929D03*
X52130Y-41929D03*
G54D15*
X58893Y-42013D03*
G54D14*
X59893Y-42013D03*
X60893Y-42013D03*
X61893Y-42013D03*
X61893Y-39013D03*
X60893Y-39013D03*
X59893Y-39013D03*
X58893Y-39013D03*
G54D15*
X55831Y-41929D03*
G54D14*
X52831Y-41929D03*
G54D15*
X56339Y-39091D03*
G54D14*
X56339Y-42091D03*
X57717Y-39067D03*
X57717Y-40067D03*
G54D16*
X57059Y-42008D03*
X58059Y-42008D03*
X57059Y-37323D03*
X58059Y-37323D03*
X57059Y-32638D03*
X58059Y-32638D03*
X57059Y-27953D03*
X58059Y-27953D03*
G54D17*
X48504Y-39173D03*
X48504Y-29803D03*
X48504Y-25118D03*
X48504Y-34488D03*
G54D18*
X48543Y-39212D02*
X48543Y-39606D01*
X48504Y-39173D02*
X48543Y-39212D01*
X57717Y-40067D02*
X59947Y-40067D01*
X59947Y-40067D02*
X61893Y-42013D01*
X55697Y-35382D02*
X57717Y-35382D01*
X55276Y-34961D02*
X55697Y-35382D01*
X48583Y-34961D02*
X55276Y-34961D01*
X48543Y-34921D02*
X48583Y-34961D01*
X48543Y-34527D02*
X48543Y-34921D01*
X48543Y-25551D02*
X48583Y-25591D01*
X48583Y-25591D02*
X55276Y-25591D01*
X55276Y-25591D02*
X55697Y-26012D01*
X55697Y-26012D02*
X57717Y-26012D01*
X59947Y-30697D02*
X61893Y-32643D01*
X57717Y-30697D02*
X59947Y-30697D01*
X48504Y-29803D02*
X48543Y-29842D01*
X48504Y-25118D02*
X48543Y-25157D01*
X57717Y-26012D02*
X59947Y-26012D01*
X59947Y-26012D02*
X61893Y-27958D01*
X55697Y-30697D02*
X57717Y-30697D01*
X55276Y-30276D02*
X55697Y-30697D01*
X48583Y-30276D02*
X55276Y-30276D01*
X48543Y-30236D02*
X48583Y-30276D01*
X48543Y-29842D02*
X48543Y-30236D01*
X48543Y-25157D02*
X48543Y-25551D01*
X48504Y-34488D02*
X48543Y-34527D01*
X57717Y-35382D02*
X59947Y-35382D01*
X59947Y-35382D02*
X61893Y-37328D01*
X55697Y-40067D02*
X57717Y-40067D01*
X55276Y-39646D02*
X55697Y-40067D01*
X48583Y-39646D02*
X55276Y-39646D01*
X48543Y-39606D02*
X48583Y-39646D01*
X63267Y-36702D02*
X60893Y-34328D01*
X63267Y-36969D02*
X63267Y-36702D01*
X63267Y-41387D02*
X60893Y-39013D01*
X63267Y-41654D02*
X63267Y-41387D01*
X63267Y-32284D02*
X63267Y-32017D01*
X63267Y-32017D02*
X60893Y-29643D01*
X63267Y-27599D02*
X63267Y-27332D01*
X63267Y-27332D02*
X60893Y-24958D01*
X58059Y-27953D02*
X58059Y-27610D01*
X58059Y-32638D02*
X58059Y-32295D01*
X59337Y-32087D02*
X59893Y-32643D01*
X58267Y-32087D02*
X59337Y-32087D01*
X58059Y-32295D02*
X58267Y-32087D01*
X58059Y-36980D02*
X58267Y-36772D01*
X58267Y-36772D02*
X59337Y-36772D01*
X59337Y-36772D02*
X59893Y-37328D01*
X58059Y-41665D02*
X58267Y-41457D01*
X58267Y-41457D02*
X59337Y-41457D01*
X59337Y-41457D02*
X59893Y-42013D01*
X58059Y-42008D02*
X58059Y-41665D01*
X58059Y-37323D02*
X58059Y-36980D01*
X59337Y-27402D02*
X59893Y-27958D01*
X58267Y-27402D02*
X59337Y-27402D01*
X58059Y-27610D02*
X58267Y-27402D01*
X52130Y-25158D02*
X55473Y-25158D01*
X59339Y-25512D02*
X59893Y-24958D01*
X55827Y-25512D02*
X59339Y-25512D01*
X55473Y-25158D02*
X55827Y-25512D01*
X55473Y-29843D02*
X55827Y-30197D01*
X55827Y-30197D02*
X59339Y-30197D01*
X59339Y-30197D02*
X59893Y-29643D01*
X52130Y-29843D02*
X55473Y-29843D01*
X52130Y-34528D02*
X55473Y-34528D01*
X59339Y-34882D02*
X59893Y-34328D01*
X55827Y-34882D02*
X59339Y-34882D01*
X55473Y-34528D02*
X55827Y-34882D01*
X55473Y-39213D02*
X55827Y-39567D01*
X55827Y-39567D02*
X59339Y-39567D01*
X59339Y-39567D02*
X59893Y-39013D01*
X52130Y-39213D02*
X55473Y-39213D01*
X52130Y-27831D02*
X52638Y-27323D01*
X52638Y-27323D02*
X56429Y-27323D01*
X56429Y-27323D02*
X57059Y-27953D01*
X52130Y-27874D02*
X52130Y-27831D01*
X52130Y-32559D02*
X52130Y-32516D01*
X56429Y-32008D02*
X57059Y-32638D01*
X52638Y-32008D02*
X56429Y-32008D01*
X52130Y-32516D02*
X52638Y-32008D01*
X52130Y-37201D02*
X52638Y-36693D01*
X52638Y-36693D02*
X56429Y-36693D01*
X56429Y-36693D02*
X57059Y-37323D01*
X52130Y-37244D02*
X52130Y-37201D01*
X52130Y-41929D02*
X52130Y-41886D01*
X56429Y-41378D02*
X57059Y-42008D01*
X52638Y-41378D02*
X56429Y-41378D01*
X52130Y-41886D02*
X52638Y-41378D01*
M02*
