G04 (created by PCBNEW-RS274X (2011-12-23 BZR 3325)-testing) date Sunday, March 18, 2012 01:27:50 AM*
G01*
G70*
G90*
%MOIN*%
G04 Gerber Fmt 3.4, Leading zero omitted, Abs format*
%FSLAX34Y34*%
G04 APERTURE LIST*
%ADD10C,0.006000*%
%ADD11C,0.015000*%
%ADD12C,0.025000*%
%ADD13C,0.010000*%
%ADD14C,0.000100*%
G04 APERTURE END LIST*
G54D10*
G54D11*
X64370Y-42913D02*
X64370Y-24173D01*
X44764Y-42913D02*
X64370Y-42913D01*
X44764Y-24173D02*
X44764Y-42913D01*
X44764Y-24173D02*
X64370Y-24173D01*
G54D12*
X61536Y-26626D02*
X61536Y-25626D01*
X61136Y-26340D01*
X60736Y-25626D01*
X60736Y-26626D01*
X60165Y-26626D02*
X60165Y-25626D01*
X59766Y-25626D02*
X59080Y-25626D01*
X59423Y-26626D02*
X59423Y-25626D01*
G54D13*
X62142Y-27367D02*
X62142Y-26867D01*
X61856Y-27367D01*
X61856Y-26867D01*
X61427Y-27344D02*
X61475Y-27367D01*
X61570Y-27367D01*
X61618Y-27344D01*
X61642Y-27296D01*
X61642Y-27105D01*
X61618Y-27058D01*
X61570Y-27034D01*
X61475Y-27034D01*
X61427Y-27058D01*
X61404Y-27105D01*
X61404Y-27153D01*
X61642Y-27201D01*
X61237Y-27367D02*
X60975Y-27034D01*
X61237Y-27034D02*
X60975Y-27367D01*
X60855Y-27034D02*
X60665Y-27034D01*
X60784Y-26867D02*
X60784Y-27296D01*
X60760Y-27344D01*
X60713Y-27367D01*
X60665Y-27367D01*
X60117Y-27367D02*
X60117Y-26867D01*
X60117Y-27105D02*
X59831Y-27105D01*
X59831Y-27367D02*
X59831Y-26867D01*
X59522Y-27367D02*
X59569Y-27344D01*
X59593Y-27320D01*
X59617Y-27272D01*
X59617Y-27129D01*
X59593Y-27082D01*
X59569Y-27058D01*
X59522Y-27034D01*
X59450Y-27034D01*
X59402Y-27058D01*
X59379Y-27082D01*
X59355Y-27129D01*
X59355Y-27272D01*
X59379Y-27320D01*
X59402Y-27344D01*
X59450Y-27367D01*
X59522Y-27367D01*
X58927Y-27034D02*
X58927Y-27367D01*
X59141Y-27034D02*
X59141Y-27296D01*
X59117Y-27344D01*
X59070Y-27367D01*
X58998Y-27367D01*
X58950Y-27344D01*
X58927Y-27320D01*
X58713Y-27344D02*
X58665Y-27367D01*
X58570Y-27367D01*
X58522Y-27344D01*
X58498Y-27296D01*
X58498Y-27272D01*
X58522Y-27225D01*
X58570Y-27201D01*
X58641Y-27201D01*
X58689Y-27177D01*
X58713Y-27129D01*
X58713Y-27105D01*
X58689Y-27058D01*
X58641Y-27034D01*
X58570Y-27034D01*
X58522Y-27058D01*
X58093Y-27344D02*
X58141Y-27367D01*
X58236Y-27367D01*
X58284Y-27344D01*
X58308Y-27296D01*
X58308Y-27105D01*
X58284Y-27058D01*
X58236Y-27034D01*
X58141Y-27034D01*
X58093Y-27058D01*
X58070Y-27105D01*
X58070Y-27153D01*
X58308Y-27201D01*
G54D12*
X61536Y-31311D02*
X61536Y-30311D01*
X61136Y-31025D01*
X60736Y-30311D01*
X60736Y-31311D01*
X60165Y-31311D02*
X60165Y-30311D01*
X59766Y-30311D02*
X59080Y-30311D01*
X59423Y-31311D02*
X59423Y-30311D01*
G54D13*
X62142Y-32052D02*
X62142Y-31552D01*
X61856Y-32052D01*
X61856Y-31552D01*
X61427Y-32029D02*
X61475Y-32052D01*
X61570Y-32052D01*
X61618Y-32029D01*
X61642Y-31981D01*
X61642Y-31790D01*
X61618Y-31743D01*
X61570Y-31719D01*
X61475Y-31719D01*
X61427Y-31743D01*
X61404Y-31790D01*
X61404Y-31838D01*
X61642Y-31886D01*
X61237Y-32052D02*
X60975Y-31719D01*
X61237Y-31719D02*
X60975Y-32052D01*
X60855Y-31719D02*
X60665Y-31719D01*
X60784Y-31552D02*
X60784Y-31981D01*
X60760Y-32029D01*
X60713Y-32052D01*
X60665Y-32052D01*
X60117Y-32052D02*
X60117Y-31552D01*
X60117Y-31790D02*
X59831Y-31790D01*
X59831Y-32052D02*
X59831Y-31552D01*
X59522Y-32052D02*
X59569Y-32029D01*
X59593Y-32005D01*
X59617Y-31957D01*
X59617Y-31814D01*
X59593Y-31767D01*
X59569Y-31743D01*
X59522Y-31719D01*
X59450Y-31719D01*
X59402Y-31743D01*
X59379Y-31767D01*
X59355Y-31814D01*
X59355Y-31957D01*
X59379Y-32005D01*
X59402Y-32029D01*
X59450Y-32052D01*
X59522Y-32052D01*
X58927Y-31719D02*
X58927Y-32052D01*
X59141Y-31719D02*
X59141Y-31981D01*
X59117Y-32029D01*
X59070Y-32052D01*
X58998Y-32052D01*
X58950Y-32029D01*
X58927Y-32005D01*
X58713Y-32029D02*
X58665Y-32052D01*
X58570Y-32052D01*
X58522Y-32029D01*
X58498Y-31981D01*
X58498Y-31957D01*
X58522Y-31910D01*
X58570Y-31886D01*
X58641Y-31886D01*
X58689Y-31862D01*
X58713Y-31814D01*
X58713Y-31790D01*
X58689Y-31743D01*
X58641Y-31719D01*
X58570Y-31719D01*
X58522Y-31743D01*
X58093Y-32029D02*
X58141Y-32052D01*
X58236Y-32052D01*
X58284Y-32029D01*
X58308Y-31981D01*
X58308Y-31790D01*
X58284Y-31743D01*
X58236Y-31719D01*
X58141Y-31719D01*
X58093Y-31743D01*
X58070Y-31790D01*
X58070Y-31838D01*
X58308Y-31886D01*
G54D12*
X61536Y-35996D02*
X61536Y-34996D01*
X61136Y-35710D01*
X60736Y-34996D01*
X60736Y-35996D01*
X60165Y-35996D02*
X60165Y-34996D01*
X59766Y-34996D02*
X59080Y-34996D01*
X59423Y-35996D02*
X59423Y-34996D01*
G54D13*
X62142Y-36737D02*
X62142Y-36237D01*
X61856Y-36737D01*
X61856Y-36237D01*
X61427Y-36714D02*
X61475Y-36737D01*
X61570Y-36737D01*
X61618Y-36714D01*
X61642Y-36666D01*
X61642Y-36475D01*
X61618Y-36428D01*
X61570Y-36404D01*
X61475Y-36404D01*
X61427Y-36428D01*
X61404Y-36475D01*
X61404Y-36523D01*
X61642Y-36571D01*
X61237Y-36737D02*
X60975Y-36404D01*
X61237Y-36404D02*
X60975Y-36737D01*
X60855Y-36404D02*
X60665Y-36404D01*
X60784Y-36237D02*
X60784Y-36666D01*
X60760Y-36714D01*
X60713Y-36737D01*
X60665Y-36737D01*
X60117Y-36737D02*
X60117Y-36237D01*
X60117Y-36475D02*
X59831Y-36475D01*
X59831Y-36737D02*
X59831Y-36237D01*
X59522Y-36737D02*
X59569Y-36714D01*
X59593Y-36690D01*
X59617Y-36642D01*
X59617Y-36499D01*
X59593Y-36452D01*
X59569Y-36428D01*
X59522Y-36404D01*
X59450Y-36404D01*
X59402Y-36428D01*
X59379Y-36452D01*
X59355Y-36499D01*
X59355Y-36642D01*
X59379Y-36690D01*
X59402Y-36714D01*
X59450Y-36737D01*
X59522Y-36737D01*
X58927Y-36404D02*
X58927Y-36737D01*
X59141Y-36404D02*
X59141Y-36666D01*
X59117Y-36714D01*
X59070Y-36737D01*
X58998Y-36737D01*
X58950Y-36714D01*
X58927Y-36690D01*
X58713Y-36714D02*
X58665Y-36737D01*
X58570Y-36737D01*
X58522Y-36714D01*
X58498Y-36666D01*
X58498Y-36642D01*
X58522Y-36595D01*
X58570Y-36571D01*
X58641Y-36571D01*
X58689Y-36547D01*
X58713Y-36499D01*
X58713Y-36475D01*
X58689Y-36428D01*
X58641Y-36404D01*
X58570Y-36404D01*
X58522Y-36428D01*
X58093Y-36714D02*
X58141Y-36737D01*
X58236Y-36737D01*
X58284Y-36714D01*
X58308Y-36666D01*
X58308Y-36475D01*
X58284Y-36428D01*
X58236Y-36404D01*
X58141Y-36404D01*
X58093Y-36428D01*
X58070Y-36475D01*
X58070Y-36523D01*
X58308Y-36571D01*
G54D12*
X61536Y-40681D02*
X61536Y-39681D01*
X61136Y-40395D01*
X60736Y-39681D01*
X60736Y-40681D01*
X60165Y-40681D02*
X60165Y-39681D01*
X59766Y-39681D02*
X59080Y-39681D01*
X59423Y-40681D02*
X59423Y-39681D01*
G54D13*
X62142Y-41422D02*
X62142Y-40922D01*
X61856Y-41422D01*
X61856Y-40922D01*
X61427Y-41399D02*
X61475Y-41422D01*
X61570Y-41422D01*
X61618Y-41399D01*
X61642Y-41351D01*
X61642Y-41160D01*
X61618Y-41113D01*
X61570Y-41089D01*
X61475Y-41089D01*
X61427Y-41113D01*
X61404Y-41160D01*
X61404Y-41208D01*
X61642Y-41256D01*
X61237Y-41422D02*
X60975Y-41089D01*
X61237Y-41089D02*
X60975Y-41422D01*
X60855Y-41089D02*
X60665Y-41089D01*
X60784Y-40922D02*
X60784Y-41351D01*
X60760Y-41399D01*
X60713Y-41422D01*
X60665Y-41422D01*
X60117Y-41422D02*
X60117Y-40922D01*
X60117Y-41160D02*
X59831Y-41160D01*
X59831Y-41422D02*
X59831Y-40922D01*
X59522Y-41422D02*
X59569Y-41399D01*
X59593Y-41375D01*
X59617Y-41327D01*
X59617Y-41184D01*
X59593Y-41137D01*
X59569Y-41113D01*
X59522Y-41089D01*
X59450Y-41089D01*
X59402Y-41113D01*
X59379Y-41137D01*
X59355Y-41184D01*
X59355Y-41327D01*
X59379Y-41375D01*
X59402Y-41399D01*
X59450Y-41422D01*
X59522Y-41422D01*
X58927Y-41089D02*
X58927Y-41422D01*
X59141Y-41089D02*
X59141Y-41351D01*
X59117Y-41399D01*
X59070Y-41422D01*
X58998Y-41422D01*
X58950Y-41399D01*
X58927Y-41375D01*
X58713Y-41399D02*
X58665Y-41422D01*
X58570Y-41422D01*
X58522Y-41399D01*
X58498Y-41351D01*
X58498Y-41327D01*
X58522Y-41280D01*
X58570Y-41256D01*
X58641Y-41256D01*
X58689Y-41232D01*
X58713Y-41184D01*
X58713Y-41160D01*
X58689Y-41113D01*
X58641Y-41089D01*
X58570Y-41089D01*
X58522Y-41113D01*
X58093Y-41399D02*
X58141Y-41422D01*
X58236Y-41422D01*
X58284Y-41399D01*
X58308Y-41351D01*
X58308Y-41160D01*
X58284Y-41113D01*
X58236Y-41089D01*
X58141Y-41089D01*
X58093Y-41113D01*
X58070Y-41160D01*
X58070Y-41208D01*
X58308Y-41256D01*
G54D14*
G36*
X57215Y-27450D02*
X57087Y-27450D01*
X57087Y-25596D01*
X57083Y-25552D01*
X57078Y-25550D01*
X57049Y-25579D01*
X57001Y-25658D01*
X56939Y-25774D01*
X56869Y-25917D01*
X56797Y-26075D01*
X56729Y-26234D01*
X56671Y-26385D01*
X56658Y-26418D01*
X56612Y-26546D01*
X56577Y-26622D01*
X56547Y-26658D01*
X56513Y-26666D01*
X56482Y-26660D01*
X56417Y-26644D01*
X56393Y-26636D01*
X56400Y-26605D01*
X56426Y-26523D01*
X56465Y-26400D01*
X56515Y-26248D01*
X56532Y-26200D01*
X56607Y-25969D01*
X56661Y-25795D01*
X56693Y-25672D01*
X56706Y-25595D01*
X56701Y-25556D01*
X56689Y-25550D01*
X56663Y-25579D01*
X56617Y-25657D01*
X56557Y-25773D01*
X56490Y-25914D01*
X56420Y-26068D01*
X56355Y-26223D01*
X56298Y-26366D01*
X56279Y-26420D01*
X56204Y-26635D01*
X55962Y-26637D01*
X55720Y-26639D01*
X55630Y-26386D01*
X55571Y-26227D01*
X55504Y-26058D01*
X55445Y-25920D01*
X55397Y-25813D01*
X55363Y-25733D01*
X55349Y-25696D01*
X55349Y-25695D01*
X55378Y-25687D01*
X55448Y-25683D01*
X55450Y-25683D01*
X55517Y-25674D01*
X55532Y-25651D01*
X55532Y-25650D01*
X55487Y-25626D01*
X55409Y-25616D01*
X55317Y-25597D01*
X55262Y-25558D01*
X55227Y-25526D01*
X55216Y-25542D01*
X55187Y-25568D01*
X55115Y-25581D01*
X55026Y-25582D01*
X54942Y-25569D01*
X54889Y-25543D01*
X54855Y-25520D01*
X54849Y-25543D01*
X54825Y-25563D01*
X54752Y-25575D01*
X54622Y-25582D01*
X54499Y-25583D01*
X54327Y-25581D01*
X54216Y-25572D01*
X54159Y-25557D01*
X54149Y-25543D01*
X54139Y-25520D01*
X54108Y-25543D01*
X54049Y-25571D01*
X53962Y-25582D01*
X53875Y-25576D01*
X53814Y-25554D01*
X53803Y-25542D01*
X53779Y-25524D01*
X53749Y-25558D01*
X53682Y-25605D01*
X53597Y-25617D01*
X53520Y-25625D01*
X53483Y-25646D01*
X53482Y-25650D01*
X53511Y-25673D01*
X53581Y-25683D01*
X53582Y-25683D01*
X53683Y-25683D01*
X53587Y-25875D01*
X53529Y-25998D01*
X53461Y-26155D01*
X53396Y-26317D01*
X53381Y-26357D01*
X53272Y-26647D01*
X53102Y-26657D01*
X52990Y-26671D01*
X52939Y-26694D01*
X52951Y-26718D01*
X53027Y-26737D01*
X53086Y-26743D01*
X53241Y-26753D01*
X53194Y-26908D01*
X53153Y-27021D01*
X53103Y-27084D01*
X53024Y-27111D01*
X52915Y-27117D01*
X52804Y-27124D01*
X52729Y-27142D01*
X52698Y-27166D01*
X52723Y-27192D01*
X52732Y-27195D01*
X52802Y-27210D01*
X52899Y-27217D01*
X52910Y-27217D01*
X53002Y-27224D01*
X53069Y-27241D01*
X53074Y-27244D01*
X53130Y-27256D01*
X53225Y-27255D01*
X53282Y-27250D01*
X53383Y-27240D01*
X53433Y-27248D01*
X53449Y-27274D01*
X53450Y-27281D01*
X53456Y-27313D01*
X53482Y-27291D01*
X53495Y-27275D01*
X53561Y-27230D01*
X53624Y-27217D01*
X53722Y-27208D01*
X53782Y-27187D01*
X53791Y-27159D01*
X53776Y-27146D01*
X53707Y-27122D01*
X53659Y-27117D01*
X53624Y-27114D01*
X53610Y-27098D01*
X53618Y-27056D01*
X53651Y-26975D01*
X53697Y-26875D01*
X53768Y-26713D01*
X53843Y-26531D01*
X53901Y-26383D01*
X53995Y-26132D01*
X54493Y-26140D01*
X54992Y-26148D01*
X55115Y-26474D01*
X55176Y-26632D01*
X55237Y-26786D01*
X55289Y-26913D01*
X55310Y-26962D01*
X55355Y-27065D01*
X55375Y-27122D01*
X55372Y-27145D01*
X55347Y-27150D01*
X55330Y-27150D01*
X55295Y-27166D01*
X55299Y-27183D01*
X55346Y-27213D01*
X55372Y-27217D01*
X55433Y-27241D01*
X55469Y-27275D01*
X55503Y-27315D01*
X55513Y-27301D01*
X55514Y-27274D01*
X55524Y-27239D01*
X55564Y-27228D01*
X55652Y-27237D01*
X55657Y-27237D01*
X55755Y-27258D01*
X55827Y-27284D01*
X55840Y-27292D01*
X55876Y-27305D01*
X55882Y-27287D01*
X55907Y-27257D01*
X55961Y-27252D01*
X56012Y-27273D01*
X56027Y-27292D01*
X56051Y-27314D01*
X56071Y-27296D01*
X56118Y-27271D01*
X56207Y-27249D01*
X56254Y-27242D01*
X56349Y-27236D01*
X56391Y-27245D01*
X56392Y-27271D01*
X56394Y-27311D01*
X56408Y-27317D01*
X56448Y-27290D01*
X56461Y-27267D01*
X56505Y-27228D01*
X56562Y-27217D01*
X56633Y-27204D01*
X56665Y-27183D01*
X56658Y-27154D01*
X56636Y-27150D01*
X56594Y-27142D01*
X56575Y-27113D01*
X56582Y-27054D01*
X56614Y-26955D01*
X56675Y-26808D01*
X56694Y-26763D01*
X56774Y-26571D01*
X56851Y-26371D01*
X56922Y-26174D01*
X56984Y-25988D01*
X57035Y-25823D01*
X57070Y-25689D01*
X57087Y-25596D01*
X57087Y-27450D01*
X54882Y-27450D01*
X52549Y-27450D01*
X52549Y-26433D01*
X52549Y-25417D01*
X54882Y-25417D01*
X57215Y-25417D01*
X57215Y-26433D01*
X57215Y-27450D01*
X57215Y-27450D01*
X57215Y-27450D01*
G37*
G36*
X54015Y-25699D02*
X53998Y-25758D01*
X53956Y-25843D01*
X53901Y-25932D01*
X53845Y-26007D01*
X53802Y-26047D01*
X53794Y-26050D01*
X53759Y-26061D01*
X53776Y-26092D01*
X53783Y-26130D01*
X53772Y-26207D01*
X53739Y-26329D01*
X53684Y-26503D01*
X53642Y-26626D01*
X53576Y-26815D01*
X53526Y-26950D01*
X53485Y-27038D01*
X53448Y-27088D01*
X53408Y-27108D01*
X53361Y-27106D01*
X53310Y-27094D01*
X53280Y-27080D01*
X53276Y-27047D01*
X53298Y-26981D01*
X53326Y-26915D01*
X53380Y-26812D01*
X53429Y-26761D01*
X53472Y-26751D01*
X53542Y-26736D01*
X53564Y-26705D01*
X53531Y-26673D01*
X53513Y-26666D01*
X53464Y-26633D01*
X53469Y-26588D01*
X53489Y-26537D01*
X53525Y-26437D01*
X53573Y-26301D01*
X53628Y-26143D01*
X53637Y-26117D01*
X53779Y-25700D01*
X53897Y-25689D01*
X53975Y-25688D01*
X54014Y-25696D01*
X54015Y-25699D01*
X54015Y-25699D01*
X54015Y-25699D01*
G37*
G36*
X55749Y-27117D02*
X55616Y-27117D01*
X55532Y-27114D01*
X55485Y-27107D01*
X55482Y-27104D01*
X55472Y-27058D01*
X55445Y-26964D01*
X55407Y-26838D01*
X55362Y-26694D01*
X55316Y-26550D01*
X55272Y-26419D01*
X55236Y-26318D01*
X55219Y-26276D01*
X55154Y-26123D01*
X55226Y-26099D01*
X55299Y-26075D01*
X55223Y-26060D01*
X55151Y-26013D01*
X55075Y-25903D01*
X55066Y-25884D01*
X55019Y-25779D01*
X55017Y-25718D01*
X55062Y-25690D01*
X55160Y-25684D01*
X55190Y-25691D01*
X55218Y-25717D01*
X55249Y-25772D01*
X55287Y-25866D01*
X55336Y-26006D01*
X55386Y-26159D01*
X55451Y-26370D01*
X55494Y-26528D01*
X55513Y-26630D01*
X55509Y-26672D01*
X55505Y-26711D01*
X55543Y-26731D01*
X55605Y-26775D01*
X55625Y-26809D01*
X55648Y-26876D01*
X55686Y-26970D01*
X55695Y-26992D01*
X55749Y-27117D01*
X55749Y-27117D01*
X55749Y-27117D01*
G37*
G36*
X56142Y-26781D02*
X56136Y-26822D01*
X56135Y-26825D01*
X56111Y-26917D01*
X56094Y-26992D01*
X56057Y-27065D01*
X56014Y-27083D01*
X55935Y-27093D01*
X55907Y-27101D01*
X55872Y-27091D01*
X55838Y-27027D01*
X55809Y-26934D01*
X55757Y-26750D01*
X55957Y-26750D01*
X56067Y-26751D01*
X56124Y-26760D01*
X56142Y-26781D01*
X56142Y-26781D01*
X56142Y-26781D01*
G37*
G36*
X56538Y-26729D02*
X56533Y-26761D01*
X56513Y-26839D01*
X56488Y-26925D01*
X56455Y-27031D01*
X56426Y-27088D01*
X56386Y-27112D01*
X56321Y-27116D01*
X56307Y-27116D01*
X56226Y-27112D01*
X56184Y-27101D01*
X56182Y-27098D01*
X56194Y-27059D01*
X56225Y-26980D01*
X56251Y-26918D01*
X56300Y-26819D01*
X56348Y-26766D01*
X56412Y-26743D01*
X56426Y-26741D01*
X56501Y-26731D01*
X56538Y-26729D01*
X56538Y-26729D01*
X56538Y-26729D01*
G37*
G36*
X54948Y-25992D02*
X54917Y-26001D01*
X54831Y-26008D01*
X54702Y-26014D01*
X54543Y-26016D01*
X54484Y-26017D01*
X54019Y-26017D01*
X54070Y-25867D01*
X54121Y-25717D01*
X54500Y-25717D01*
X54879Y-25716D01*
X54913Y-25842D01*
X54936Y-25928D01*
X54948Y-25985D01*
X54948Y-25992D01*
X54948Y-25992D01*
X54948Y-25992D01*
G37*
G36*
X57215Y-32135D02*
X57087Y-32135D01*
X57087Y-30281D01*
X57083Y-30237D01*
X57078Y-30235D01*
X57049Y-30264D01*
X57001Y-30343D01*
X56939Y-30459D01*
X56869Y-30602D01*
X56797Y-30760D01*
X56729Y-30919D01*
X56671Y-31070D01*
X56658Y-31103D01*
X56612Y-31231D01*
X56577Y-31307D01*
X56547Y-31343D01*
X56513Y-31351D01*
X56482Y-31345D01*
X56417Y-31329D01*
X56393Y-31321D01*
X56400Y-31290D01*
X56426Y-31208D01*
X56465Y-31085D01*
X56515Y-30933D01*
X56532Y-30885D01*
X56607Y-30654D01*
X56661Y-30480D01*
X56693Y-30357D01*
X56706Y-30280D01*
X56701Y-30241D01*
X56689Y-30235D01*
X56663Y-30264D01*
X56617Y-30342D01*
X56557Y-30458D01*
X56490Y-30599D01*
X56420Y-30753D01*
X56355Y-30908D01*
X56298Y-31051D01*
X56279Y-31105D01*
X56204Y-31320D01*
X55962Y-31322D01*
X55720Y-31324D01*
X55630Y-31071D01*
X55571Y-30912D01*
X55504Y-30743D01*
X55445Y-30605D01*
X55397Y-30498D01*
X55363Y-30418D01*
X55349Y-30381D01*
X55349Y-30380D01*
X55378Y-30372D01*
X55448Y-30368D01*
X55450Y-30368D01*
X55517Y-30359D01*
X55532Y-30336D01*
X55532Y-30335D01*
X55487Y-30311D01*
X55409Y-30301D01*
X55317Y-30282D01*
X55262Y-30243D01*
X55227Y-30211D01*
X55216Y-30227D01*
X55187Y-30253D01*
X55115Y-30266D01*
X55026Y-30267D01*
X54942Y-30254D01*
X54889Y-30228D01*
X54855Y-30205D01*
X54849Y-30228D01*
X54825Y-30248D01*
X54752Y-30260D01*
X54622Y-30267D01*
X54499Y-30268D01*
X54327Y-30266D01*
X54216Y-30257D01*
X54159Y-30242D01*
X54149Y-30228D01*
X54139Y-30205D01*
X54108Y-30228D01*
X54049Y-30256D01*
X53962Y-30267D01*
X53875Y-30261D01*
X53814Y-30239D01*
X53803Y-30227D01*
X53779Y-30209D01*
X53749Y-30243D01*
X53682Y-30290D01*
X53597Y-30302D01*
X53520Y-30310D01*
X53483Y-30331D01*
X53482Y-30335D01*
X53511Y-30358D01*
X53581Y-30368D01*
X53582Y-30368D01*
X53683Y-30368D01*
X53587Y-30560D01*
X53529Y-30683D01*
X53461Y-30840D01*
X53396Y-31002D01*
X53381Y-31042D01*
X53272Y-31332D01*
X53102Y-31342D01*
X52990Y-31356D01*
X52939Y-31379D01*
X52951Y-31403D01*
X53027Y-31422D01*
X53086Y-31428D01*
X53241Y-31438D01*
X53194Y-31593D01*
X53153Y-31706D01*
X53103Y-31769D01*
X53024Y-31796D01*
X52915Y-31802D01*
X52804Y-31809D01*
X52729Y-31827D01*
X52698Y-31851D01*
X52723Y-31877D01*
X52732Y-31880D01*
X52802Y-31895D01*
X52899Y-31902D01*
X52910Y-31902D01*
X53002Y-31909D01*
X53069Y-31926D01*
X53074Y-31929D01*
X53130Y-31941D01*
X53225Y-31940D01*
X53282Y-31935D01*
X53383Y-31925D01*
X53433Y-31933D01*
X53449Y-31959D01*
X53450Y-31966D01*
X53456Y-31998D01*
X53482Y-31976D01*
X53495Y-31960D01*
X53561Y-31915D01*
X53624Y-31902D01*
X53722Y-31893D01*
X53782Y-31872D01*
X53791Y-31844D01*
X53776Y-31831D01*
X53707Y-31807D01*
X53659Y-31802D01*
X53624Y-31799D01*
X53610Y-31783D01*
X53618Y-31741D01*
X53651Y-31660D01*
X53697Y-31560D01*
X53768Y-31398D01*
X53843Y-31216D01*
X53901Y-31068D01*
X53995Y-30817D01*
X54493Y-30825D01*
X54992Y-30833D01*
X55115Y-31159D01*
X55176Y-31317D01*
X55237Y-31471D01*
X55289Y-31598D01*
X55310Y-31647D01*
X55355Y-31750D01*
X55375Y-31807D01*
X55372Y-31830D01*
X55347Y-31835D01*
X55330Y-31835D01*
X55295Y-31851D01*
X55299Y-31868D01*
X55346Y-31898D01*
X55372Y-31902D01*
X55433Y-31926D01*
X55469Y-31960D01*
X55503Y-32000D01*
X55513Y-31986D01*
X55514Y-31959D01*
X55524Y-31924D01*
X55564Y-31913D01*
X55652Y-31922D01*
X55657Y-31922D01*
X55755Y-31943D01*
X55827Y-31969D01*
X55840Y-31977D01*
X55876Y-31990D01*
X55882Y-31972D01*
X55907Y-31942D01*
X55961Y-31937D01*
X56012Y-31958D01*
X56027Y-31977D01*
X56051Y-31999D01*
X56071Y-31981D01*
X56118Y-31956D01*
X56207Y-31934D01*
X56254Y-31927D01*
X56349Y-31921D01*
X56391Y-31930D01*
X56392Y-31956D01*
X56394Y-31996D01*
X56408Y-32002D01*
X56448Y-31975D01*
X56461Y-31952D01*
X56505Y-31913D01*
X56562Y-31902D01*
X56633Y-31889D01*
X56665Y-31868D01*
X56658Y-31839D01*
X56636Y-31835D01*
X56594Y-31827D01*
X56575Y-31798D01*
X56582Y-31739D01*
X56614Y-31640D01*
X56675Y-31493D01*
X56694Y-31448D01*
X56774Y-31256D01*
X56851Y-31056D01*
X56922Y-30859D01*
X56984Y-30673D01*
X57035Y-30508D01*
X57070Y-30374D01*
X57087Y-30281D01*
X57087Y-32135D01*
X54882Y-32135D01*
X52549Y-32135D01*
X52549Y-31118D01*
X52549Y-30102D01*
X54882Y-30102D01*
X57215Y-30102D01*
X57215Y-31118D01*
X57215Y-32135D01*
X57215Y-32135D01*
X57215Y-32135D01*
G37*
G36*
X54015Y-30384D02*
X53998Y-30443D01*
X53956Y-30528D01*
X53901Y-30617D01*
X53845Y-30692D01*
X53802Y-30732D01*
X53794Y-30735D01*
X53759Y-30746D01*
X53776Y-30777D01*
X53783Y-30815D01*
X53772Y-30892D01*
X53739Y-31014D01*
X53684Y-31188D01*
X53642Y-31311D01*
X53576Y-31500D01*
X53526Y-31635D01*
X53485Y-31723D01*
X53448Y-31773D01*
X53408Y-31793D01*
X53361Y-31791D01*
X53310Y-31779D01*
X53280Y-31765D01*
X53276Y-31732D01*
X53298Y-31666D01*
X53326Y-31600D01*
X53380Y-31497D01*
X53429Y-31446D01*
X53472Y-31436D01*
X53542Y-31421D01*
X53564Y-31390D01*
X53531Y-31358D01*
X53513Y-31351D01*
X53464Y-31318D01*
X53469Y-31273D01*
X53489Y-31222D01*
X53525Y-31122D01*
X53573Y-30986D01*
X53628Y-30828D01*
X53637Y-30802D01*
X53779Y-30385D01*
X53897Y-30374D01*
X53975Y-30373D01*
X54014Y-30381D01*
X54015Y-30384D01*
X54015Y-30384D01*
X54015Y-30384D01*
G37*
G36*
X55749Y-31802D02*
X55616Y-31802D01*
X55532Y-31799D01*
X55485Y-31792D01*
X55482Y-31789D01*
X55472Y-31743D01*
X55445Y-31649D01*
X55407Y-31523D01*
X55362Y-31379D01*
X55316Y-31235D01*
X55272Y-31104D01*
X55236Y-31003D01*
X55219Y-30961D01*
X55154Y-30808D01*
X55226Y-30784D01*
X55299Y-30760D01*
X55223Y-30745D01*
X55151Y-30698D01*
X55075Y-30588D01*
X55066Y-30569D01*
X55019Y-30464D01*
X55017Y-30403D01*
X55062Y-30375D01*
X55160Y-30369D01*
X55190Y-30376D01*
X55218Y-30402D01*
X55249Y-30457D01*
X55287Y-30551D01*
X55336Y-30691D01*
X55386Y-30844D01*
X55451Y-31055D01*
X55494Y-31213D01*
X55513Y-31315D01*
X55509Y-31357D01*
X55505Y-31396D01*
X55543Y-31416D01*
X55605Y-31460D01*
X55625Y-31494D01*
X55648Y-31561D01*
X55686Y-31655D01*
X55695Y-31677D01*
X55749Y-31802D01*
X55749Y-31802D01*
X55749Y-31802D01*
G37*
G36*
X56142Y-31466D02*
X56136Y-31507D01*
X56135Y-31510D01*
X56111Y-31602D01*
X56094Y-31677D01*
X56057Y-31750D01*
X56014Y-31768D01*
X55935Y-31778D01*
X55907Y-31786D01*
X55872Y-31776D01*
X55838Y-31712D01*
X55809Y-31619D01*
X55757Y-31435D01*
X55957Y-31435D01*
X56067Y-31436D01*
X56124Y-31445D01*
X56142Y-31466D01*
X56142Y-31466D01*
X56142Y-31466D01*
G37*
G36*
X56538Y-31414D02*
X56533Y-31446D01*
X56513Y-31524D01*
X56488Y-31610D01*
X56455Y-31716D01*
X56426Y-31773D01*
X56386Y-31797D01*
X56321Y-31801D01*
X56307Y-31801D01*
X56226Y-31797D01*
X56184Y-31786D01*
X56182Y-31783D01*
X56194Y-31744D01*
X56225Y-31665D01*
X56251Y-31603D01*
X56300Y-31504D01*
X56348Y-31451D01*
X56412Y-31428D01*
X56426Y-31426D01*
X56501Y-31416D01*
X56538Y-31414D01*
X56538Y-31414D01*
X56538Y-31414D01*
G37*
G36*
X54948Y-30677D02*
X54917Y-30686D01*
X54831Y-30693D01*
X54702Y-30699D01*
X54543Y-30701D01*
X54484Y-30702D01*
X54019Y-30702D01*
X54070Y-30552D01*
X54121Y-30402D01*
X54500Y-30402D01*
X54879Y-30401D01*
X54913Y-30527D01*
X54936Y-30613D01*
X54948Y-30670D01*
X54948Y-30677D01*
X54948Y-30677D01*
X54948Y-30677D01*
G37*
G36*
X57215Y-36820D02*
X57087Y-36820D01*
X57087Y-34966D01*
X57083Y-34922D01*
X57078Y-34920D01*
X57049Y-34949D01*
X57001Y-35028D01*
X56939Y-35144D01*
X56869Y-35287D01*
X56797Y-35445D01*
X56729Y-35604D01*
X56671Y-35755D01*
X56658Y-35788D01*
X56612Y-35916D01*
X56577Y-35992D01*
X56547Y-36028D01*
X56513Y-36036D01*
X56482Y-36030D01*
X56417Y-36014D01*
X56393Y-36006D01*
X56400Y-35975D01*
X56426Y-35893D01*
X56465Y-35770D01*
X56515Y-35618D01*
X56532Y-35570D01*
X56607Y-35339D01*
X56661Y-35165D01*
X56693Y-35042D01*
X56706Y-34965D01*
X56701Y-34926D01*
X56689Y-34920D01*
X56663Y-34949D01*
X56617Y-35027D01*
X56557Y-35143D01*
X56490Y-35284D01*
X56420Y-35438D01*
X56355Y-35593D01*
X56298Y-35736D01*
X56279Y-35790D01*
X56204Y-36005D01*
X55962Y-36007D01*
X55720Y-36009D01*
X55630Y-35756D01*
X55571Y-35597D01*
X55504Y-35428D01*
X55445Y-35290D01*
X55397Y-35183D01*
X55363Y-35103D01*
X55349Y-35066D01*
X55349Y-35065D01*
X55378Y-35057D01*
X55448Y-35053D01*
X55450Y-35053D01*
X55517Y-35044D01*
X55532Y-35021D01*
X55532Y-35020D01*
X55487Y-34996D01*
X55409Y-34986D01*
X55317Y-34967D01*
X55262Y-34928D01*
X55227Y-34896D01*
X55216Y-34912D01*
X55187Y-34938D01*
X55115Y-34951D01*
X55026Y-34952D01*
X54942Y-34939D01*
X54889Y-34913D01*
X54855Y-34890D01*
X54849Y-34913D01*
X54825Y-34933D01*
X54752Y-34945D01*
X54622Y-34952D01*
X54499Y-34953D01*
X54327Y-34951D01*
X54216Y-34942D01*
X54159Y-34927D01*
X54149Y-34913D01*
X54139Y-34890D01*
X54108Y-34913D01*
X54049Y-34941D01*
X53962Y-34952D01*
X53875Y-34946D01*
X53814Y-34924D01*
X53803Y-34912D01*
X53779Y-34894D01*
X53749Y-34928D01*
X53682Y-34975D01*
X53597Y-34987D01*
X53520Y-34995D01*
X53483Y-35016D01*
X53482Y-35020D01*
X53511Y-35043D01*
X53581Y-35053D01*
X53582Y-35053D01*
X53683Y-35053D01*
X53587Y-35245D01*
X53529Y-35368D01*
X53461Y-35525D01*
X53396Y-35687D01*
X53381Y-35727D01*
X53272Y-36017D01*
X53102Y-36027D01*
X52990Y-36041D01*
X52939Y-36064D01*
X52951Y-36088D01*
X53027Y-36107D01*
X53086Y-36113D01*
X53241Y-36123D01*
X53194Y-36278D01*
X53153Y-36391D01*
X53103Y-36454D01*
X53024Y-36481D01*
X52915Y-36487D01*
X52804Y-36494D01*
X52729Y-36512D01*
X52698Y-36536D01*
X52723Y-36562D01*
X52732Y-36565D01*
X52802Y-36580D01*
X52899Y-36587D01*
X52910Y-36587D01*
X53002Y-36594D01*
X53069Y-36611D01*
X53074Y-36614D01*
X53130Y-36626D01*
X53225Y-36625D01*
X53282Y-36620D01*
X53383Y-36610D01*
X53433Y-36618D01*
X53449Y-36644D01*
X53450Y-36651D01*
X53456Y-36683D01*
X53482Y-36661D01*
X53495Y-36645D01*
X53561Y-36600D01*
X53624Y-36587D01*
X53722Y-36578D01*
X53782Y-36557D01*
X53791Y-36529D01*
X53776Y-36516D01*
X53707Y-36492D01*
X53659Y-36487D01*
X53624Y-36484D01*
X53610Y-36468D01*
X53618Y-36426D01*
X53651Y-36345D01*
X53697Y-36245D01*
X53768Y-36083D01*
X53843Y-35901D01*
X53901Y-35753D01*
X53995Y-35502D01*
X54493Y-35510D01*
X54992Y-35518D01*
X55115Y-35844D01*
X55176Y-36002D01*
X55237Y-36156D01*
X55289Y-36283D01*
X55310Y-36332D01*
X55355Y-36435D01*
X55375Y-36492D01*
X55372Y-36515D01*
X55347Y-36520D01*
X55330Y-36520D01*
X55295Y-36536D01*
X55299Y-36553D01*
X55346Y-36583D01*
X55372Y-36587D01*
X55433Y-36611D01*
X55469Y-36645D01*
X55503Y-36685D01*
X55513Y-36671D01*
X55514Y-36644D01*
X55524Y-36609D01*
X55564Y-36598D01*
X55652Y-36607D01*
X55657Y-36607D01*
X55755Y-36628D01*
X55827Y-36654D01*
X55840Y-36662D01*
X55876Y-36675D01*
X55882Y-36657D01*
X55907Y-36627D01*
X55961Y-36622D01*
X56012Y-36643D01*
X56027Y-36662D01*
X56051Y-36684D01*
X56071Y-36666D01*
X56118Y-36641D01*
X56207Y-36619D01*
X56254Y-36612D01*
X56349Y-36606D01*
X56391Y-36615D01*
X56392Y-36641D01*
X56394Y-36681D01*
X56408Y-36687D01*
X56448Y-36660D01*
X56461Y-36637D01*
X56505Y-36598D01*
X56562Y-36587D01*
X56633Y-36574D01*
X56665Y-36553D01*
X56658Y-36524D01*
X56636Y-36520D01*
X56594Y-36512D01*
X56575Y-36483D01*
X56582Y-36424D01*
X56614Y-36325D01*
X56675Y-36178D01*
X56694Y-36133D01*
X56774Y-35941D01*
X56851Y-35741D01*
X56922Y-35544D01*
X56984Y-35358D01*
X57035Y-35193D01*
X57070Y-35059D01*
X57087Y-34966D01*
X57087Y-36820D01*
X54882Y-36820D01*
X52549Y-36820D01*
X52549Y-35803D01*
X52549Y-34787D01*
X54882Y-34787D01*
X57215Y-34787D01*
X57215Y-35803D01*
X57215Y-36820D01*
X57215Y-36820D01*
X57215Y-36820D01*
G37*
G36*
X54015Y-35069D02*
X53998Y-35128D01*
X53956Y-35213D01*
X53901Y-35302D01*
X53845Y-35377D01*
X53802Y-35417D01*
X53794Y-35420D01*
X53759Y-35431D01*
X53776Y-35462D01*
X53783Y-35500D01*
X53772Y-35577D01*
X53739Y-35699D01*
X53684Y-35873D01*
X53642Y-35996D01*
X53576Y-36185D01*
X53526Y-36320D01*
X53485Y-36408D01*
X53448Y-36458D01*
X53408Y-36478D01*
X53361Y-36476D01*
X53310Y-36464D01*
X53280Y-36450D01*
X53276Y-36417D01*
X53298Y-36351D01*
X53326Y-36285D01*
X53380Y-36182D01*
X53429Y-36131D01*
X53472Y-36121D01*
X53542Y-36106D01*
X53564Y-36075D01*
X53531Y-36043D01*
X53513Y-36036D01*
X53464Y-36003D01*
X53469Y-35958D01*
X53489Y-35907D01*
X53525Y-35807D01*
X53573Y-35671D01*
X53628Y-35513D01*
X53637Y-35487D01*
X53779Y-35070D01*
X53897Y-35059D01*
X53975Y-35058D01*
X54014Y-35066D01*
X54015Y-35069D01*
X54015Y-35069D01*
X54015Y-35069D01*
G37*
G36*
X55749Y-36487D02*
X55616Y-36487D01*
X55532Y-36484D01*
X55485Y-36477D01*
X55482Y-36474D01*
X55472Y-36428D01*
X55445Y-36334D01*
X55407Y-36208D01*
X55362Y-36064D01*
X55316Y-35920D01*
X55272Y-35789D01*
X55236Y-35688D01*
X55219Y-35646D01*
X55154Y-35493D01*
X55226Y-35469D01*
X55299Y-35445D01*
X55223Y-35430D01*
X55151Y-35383D01*
X55075Y-35273D01*
X55066Y-35254D01*
X55019Y-35149D01*
X55017Y-35088D01*
X55062Y-35060D01*
X55160Y-35054D01*
X55190Y-35061D01*
X55218Y-35087D01*
X55249Y-35142D01*
X55287Y-35236D01*
X55336Y-35376D01*
X55386Y-35529D01*
X55451Y-35740D01*
X55494Y-35898D01*
X55513Y-36000D01*
X55509Y-36042D01*
X55505Y-36081D01*
X55543Y-36101D01*
X55605Y-36145D01*
X55625Y-36179D01*
X55648Y-36246D01*
X55686Y-36340D01*
X55695Y-36362D01*
X55749Y-36487D01*
X55749Y-36487D01*
X55749Y-36487D01*
G37*
G36*
X56142Y-36151D02*
X56136Y-36192D01*
X56135Y-36195D01*
X56111Y-36287D01*
X56094Y-36362D01*
X56057Y-36435D01*
X56014Y-36453D01*
X55935Y-36463D01*
X55907Y-36471D01*
X55872Y-36461D01*
X55838Y-36397D01*
X55809Y-36304D01*
X55757Y-36120D01*
X55957Y-36120D01*
X56067Y-36121D01*
X56124Y-36130D01*
X56142Y-36151D01*
X56142Y-36151D01*
X56142Y-36151D01*
G37*
G36*
X56538Y-36099D02*
X56533Y-36131D01*
X56513Y-36209D01*
X56488Y-36295D01*
X56455Y-36401D01*
X56426Y-36458D01*
X56386Y-36482D01*
X56321Y-36486D01*
X56307Y-36486D01*
X56226Y-36482D01*
X56184Y-36471D01*
X56182Y-36468D01*
X56194Y-36429D01*
X56225Y-36350D01*
X56251Y-36288D01*
X56300Y-36189D01*
X56348Y-36136D01*
X56412Y-36113D01*
X56426Y-36111D01*
X56501Y-36101D01*
X56538Y-36099D01*
X56538Y-36099D01*
X56538Y-36099D01*
G37*
G36*
X54948Y-35362D02*
X54917Y-35371D01*
X54831Y-35378D01*
X54702Y-35384D01*
X54543Y-35386D01*
X54484Y-35387D01*
X54019Y-35387D01*
X54070Y-35237D01*
X54121Y-35087D01*
X54500Y-35087D01*
X54879Y-35086D01*
X54913Y-35212D01*
X54936Y-35298D01*
X54948Y-35355D01*
X54948Y-35362D01*
X54948Y-35362D01*
X54948Y-35362D01*
G37*
G36*
X57215Y-41505D02*
X57087Y-41505D01*
X57087Y-39651D01*
X57083Y-39607D01*
X57078Y-39605D01*
X57049Y-39634D01*
X57001Y-39713D01*
X56939Y-39829D01*
X56869Y-39972D01*
X56797Y-40130D01*
X56729Y-40289D01*
X56671Y-40440D01*
X56658Y-40473D01*
X56612Y-40601D01*
X56577Y-40677D01*
X56547Y-40713D01*
X56513Y-40721D01*
X56482Y-40715D01*
X56417Y-40699D01*
X56393Y-40691D01*
X56400Y-40660D01*
X56426Y-40578D01*
X56465Y-40455D01*
X56515Y-40303D01*
X56532Y-40255D01*
X56607Y-40024D01*
X56661Y-39850D01*
X56693Y-39727D01*
X56706Y-39650D01*
X56701Y-39611D01*
X56689Y-39605D01*
X56663Y-39634D01*
X56617Y-39712D01*
X56557Y-39828D01*
X56490Y-39969D01*
X56420Y-40123D01*
X56355Y-40278D01*
X56298Y-40421D01*
X56279Y-40475D01*
X56204Y-40690D01*
X55962Y-40692D01*
X55720Y-40694D01*
X55630Y-40441D01*
X55571Y-40282D01*
X55504Y-40113D01*
X55445Y-39975D01*
X55397Y-39868D01*
X55363Y-39788D01*
X55349Y-39751D01*
X55349Y-39750D01*
X55378Y-39742D01*
X55448Y-39738D01*
X55450Y-39738D01*
X55517Y-39729D01*
X55532Y-39706D01*
X55532Y-39705D01*
X55487Y-39681D01*
X55409Y-39671D01*
X55317Y-39652D01*
X55262Y-39613D01*
X55227Y-39581D01*
X55216Y-39597D01*
X55187Y-39623D01*
X55115Y-39636D01*
X55026Y-39637D01*
X54942Y-39624D01*
X54889Y-39598D01*
X54855Y-39575D01*
X54849Y-39598D01*
X54825Y-39618D01*
X54752Y-39630D01*
X54622Y-39637D01*
X54499Y-39638D01*
X54327Y-39636D01*
X54216Y-39627D01*
X54159Y-39612D01*
X54149Y-39598D01*
X54139Y-39575D01*
X54108Y-39598D01*
X54049Y-39626D01*
X53962Y-39637D01*
X53875Y-39631D01*
X53814Y-39609D01*
X53803Y-39597D01*
X53779Y-39579D01*
X53749Y-39613D01*
X53682Y-39660D01*
X53597Y-39672D01*
X53520Y-39680D01*
X53483Y-39701D01*
X53482Y-39705D01*
X53511Y-39728D01*
X53581Y-39738D01*
X53582Y-39738D01*
X53683Y-39738D01*
X53587Y-39930D01*
X53529Y-40053D01*
X53461Y-40210D01*
X53396Y-40372D01*
X53381Y-40412D01*
X53272Y-40702D01*
X53102Y-40712D01*
X52990Y-40726D01*
X52939Y-40749D01*
X52951Y-40773D01*
X53027Y-40792D01*
X53086Y-40798D01*
X53241Y-40808D01*
X53194Y-40963D01*
X53153Y-41076D01*
X53103Y-41139D01*
X53024Y-41166D01*
X52915Y-41172D01*
X52804Y-41179D01*
X52729Y-41197D01*
X52698Y-41221D01*
X52723Y-41247D01*
X52732Y-41250D01*
X52802Y-41265D01*
X52899Y-41272D01*
X52910Y-41272D01*
X53002Y-41279D01*
X53069Y-41296D01*
X53074Y-41299D01*
X53130Y-41311D01*
X53225Y-41310D01*
X53282Y-41305D01*
X53383Y-41295D01*
X53433Y-41303D01*
X53449Y-41329D01*
X53450Y-41336D01*
X53456Y-41368D01*
X53482Y-41346D01*
X53495Y-41330D01*
X53561Y-41285D01*
X53624Y-41272D01*
X53722Y-41263D01*
X53782Y-41242D01*
X53791Y-41214D01*
X53776Y-41201D01*
X53707Y-41177D01*
X53659Y-41172D01*
X53624Y-41169D01*
X53610Y-41153D01*
X53618Y-41111D01*
X53651Y-41030D01*
X53697Y-40930D01*
X53768Y-40768D01*
X53843Y-40586D01*
X53901Y-40438D01*
X53995Y-40187D01*
X54493Y-40195D01*
X54992Y-40203D01*
X55115Y-40529D01*
X55176Y-40687D01*
X55237Y-40841D01*
X55289Y-40968D01*
X55310Y-41017D01*
X55355Y-41120D01*
X55375Y-41177D01*
X55372Y-41200D01*
X55347Y-41205D01*
X55330Y-41205D01*
X55295Y-41221D01*
X55299Y-41238D01*
X55346Y-41268D01*
X55372Y-41272D01*
X55433Y-41296D01*
X55469Y-41330D01*
X55503Y-41370D01*
X55513Y-41356D01*
X55514Y-41329D01*
X55524Y-41294D01*
X55564Y-41283D01*
X55652Y-41292D01*
X55657Y-41292D01*
X55755Y-41313D01*
X55827Y-41339D01*
X55840Y-41347D01*
X55876Y-41360D01*
X55882Y-41342D01*
X55907Y-41312D01*
X55961Y-41307D01*
X56012Y-41328D01*
X56027Y-41347D01*
X56051Y-41369D01*
X56071Y-41351D01*
X56118Y-41326D01*
X56207Y-41304D01*
X56254Y-41297D01*
X56349Y-41291D01*
X56391Y-41300D01*
X56392Y-41326D01*
X56394Y-41366D01*
X56408Y-41372D01*
X56448Y-41345D01*
X56461Y-41322D01*
X56505Y-41283D01*
X56562Y-41272D01*
X56633Y-41259D01*
X56665Y-41238D01*
X56658Y-41209D01*
X56636Y-41205D01*
X56594Y-41197D01*
X56575Y-41168D01*
X56582Y-41109D01*
X56614Y-41010D01*
X56675Y-40863D01*
X56694Y-40818D01*
X56774Y-40626D01*
X56851Y-40426D01*
X56922Y-40229D01*
X56984Y-40043D01*
X57035Y-39878D01*
X57070Y-39744D01*
X57087Y-39651D01*
X57087Y-41505D01*
X54882Y-41505D01*
X52549Y-41505D01*
X52549Y-40488D01*
X52549Y-39472D01*
X54882Y-39472D01*
X57215Y-39472D01*
X57215Y-40488D01*
X57215Y-41505D01*
X57215Y-41505D01*
X57215Y-41505D01*
G37*
G36*
X54015Y-39754D02*
X53998Y-39813D01*
X53956Y-39898D01*
X53901Y-39987D01*
X53845Y-40062D01*
X53802Y-40102D01*
X53794Y-40105D01*
X53759Y-40116D01*
X53776Y-40147D01*
X53783Y-40185D01*
X53772Y-40262D01*
X53739Y-40384D01*
X53684Y-40558D01*
X53642Y-40681D01*
X53576Y-40870D01*
X53526Y-41005D01*
X53485Y-41093D01*
X53448Y-41143D01*
X53408Y-41163D01*
X53361Y-41161D01*
X53310Y-41149D01*
X53280Y-41135D01*
X53276Y-41102D01*
X53298Y-41036D01*
X53326Y-40970D01*
X53380Y-40867D01*
X53429Y-40816D01*
X53472Y-40806D01*
X53542Y-40791D01*
X53564Y-40760D01*
X53531Y-40728D01*
X53513Y-40721D01*
X53464Y-40688D01*
X53469Y-40643D01*
X53489Y-40592D01*
X53525Y-40492D01*
X53573Y-40356D01*
X53628Y-40198D01*
X53637Y-40172D01*
X53779Y-39755D01*
X53897Y-39744D01*
X53975Y-39743D01*
X54014Y-39751D01*
X54015Y-39754D01*
X54015Y-39754D01*
X54015Y-39754D01*
G37*
G36*
X55749Y-41172D02*
X55616Y-41172D01*
X55532Y-41169D01*
X55485Y-41162D01*
X55482Y-41159D01*
X55472Y-41113D01*
X55445Y-41019D01*
X55407Y-40893D01*
X55362Y-40749D01*
X55316Y-40605D01*
X55272Y-40474D01*
X55236Y-40373D01*
X55219Y-40331D01*
X55154Y-40178D01*
X55226Y-40154D01*
X55299Y-40130D01*
X55223Y-40115D01*
X55151Y-40068D01*
X55075Y-39958D01*
X55066Y-39939D01*
X55019Y-39834D01*
X55017Y-39773D01*
X55062Y-39745D01*
X55160Y-39739D01*
X55190Y-39746D01*
X55218Y-39772D01*
X55249Y-39827D01*
X55287Y-39921D01*
X55336Y-40061D01*
X55386Y-40214D01*
X55451Y-40425D01*
X55494Y-40583D01*
X55513Y-40685D01*
X55509Y-40727D01*
X55505Y-40766D01*
X55543Y-40786D01*
X55605Y-40830D01*
X55625Y-40864D01*
X55648Y-40931D01*
X55686Y-41025D01*
X55695Y-41047D01*
X55749Y-41172D01*
X55749Y-41172D01*
X55749Y-41172D01*
G37*
G36*
X56142Y-40836D02*
X56136Y-40877D01*
X56135Y-40880D01*
X56111Y-40972D01*
X56094Y-41047D01*
X56057Y-41120D01*
X56014Y-41138D01*
X55935Y-41148D01*
X55907Y-41156D01*
X55872Y-41146D01*
X55838Y-41082D01*
X55809Y-40989D01*
X55757Y-40805D01*
X55957Y-40805D01*
X56067Y-40806D01*
X56124Y-40815D01*
X56142Y-40836D01*
X56142Y-40836D01*
X56142Y-40836D01*
G37*
G36*
X56538Y-40784D02*
X56533Y-40816D01*
X56513Y-40894D01*
X56488Y-40980D01*
X56455Y-41086D01*
X56426Y-41143D01*
X56386Y-41167D01*
X56321Y-41171D01*
X56307Y-41171D01*
X56226Y-41167D01*
X56184Y-41156D01*
X56182Y-41153D01*
X56194Y-41114D01*
X56225Y-41035D01*
X56251Y-40973D01*
X56300Y-40874D01*
X56348Y-40821D01*
X56412Y-40798D01*
X56426Y-40796D01*
X56501Y-40786D01*
X56538Y-40784D01*
X56538Y-40784D01*
X56538Y-40784D01*
G37*
G36*
X54948Y-40047D02*
X54917Y-40056D01*
X54831Y-40063D01*
X54702Y-40069D01*
X54543Y-40071D01*
X54484Y-40072D01*
X54019Y-40072D01*
X54070Y-39922D01*
X54121Y-39772D01*
X54500Y-39772D01*
X54879Y-39771D01*
X54913Y-39897D01*
X54936Y-39983D01*
X54948Y-40040D01*
X54948Y-40047D01*
X54948Y-40047D01*
X54948Y-40047D01*
G37*
M02*
