G04 (created by PCBNEW-RS274X (2011-12-23 BZR 3325)-testing) date Sunday, March 18, 2012 02:45:14 AM*
G01*
G70*
G90*
%MOIN*%
G04 Gerber Fmt 3.4, Leading zero omitted, Abs format*
%FSLAX34Y34*%
G04 APERTURE LIST*
%ADD10C,0.006000*%
%ADD11C,0.015000*%
%ADD12C,0.180000*%
%ADD13C,0.177500*%
%ADD14C,0.075000*%
%ADD15R,0.075000X0.075000*%
%ADD16C,0.086000*%
G04 APERTURE END LIST*
G54D10*
G54D11*
X64370Y-42913D02*
X64370Y-24173D01*
X44764Y-42913D02*
X64370Y-42913D01*
X44764Y-24173D02*
X44764Y-42913D01*
X44764Y-24173D02*
X64370Y-24173D01*
G54D12*
X63267Y-27599D03*
G54D13*
X63267Y-25434D03*
G54D14*
X49130Y-26063D03*
X52130Y-26063D03*
X49130Y-25158D03*
X52130Y-25158D03*
X49130Y-26969D03*
X52130Y-26969D03*
X49130Y-27874D03*
X52130Y-27874D03*
G54D15*
X58893Y-27958D03*
G54D14*
X59893Y-27958D03*
X60893Y-27958D03*
X61893Y-27958D03*
X61893Y-24958D03*
X60893Y-24958D03*
X59893Y-24958D03*
X58893Y-24958D03*
G54D15*
X55831Y-27874D03*
G54D14*
X52831Y-27874D03*
G54D15*
X56339Y-25036D03*
G54D14*
X56339Y-28036D03*
X57717Y-25012D03*
X57717Y-26012D03*
G54D12*
X63267Y-32284D03*
G54D13*
X63267Y-30119D03*
G54D14*
X49130Y-30748D03*
X52130Y-30748D03*
X49130Y-29843D03*
X52130Y-29843D03*
X49130Y-31654D03*
X52130Y-31654D03*
X49130Y-32559D03*
X52130Y-32559D03*
G54D15*
X58893Y-32643D03*
G54D14*
X59893Y-32643D03*
X60893Y-32643D03*
X61893Y-32643D03*
X61893Y-29643D03*
X60893Y-29643D03*
X59893Y-29643D03*
X58893Y-29643D03*
G54D15*
X55831Y-32559D03*
G54D14*
X52831Y-32559D03*
G54D15*
X56339Y-29721D03*
G54D14*
X56339Y-32721D03*
X57717Y-29697D03*
X57717Y-30697D03*
G54D12*
X63267Y-36969D03*
G54D13*
X63267Y-34804D03*
G54D14*
X49130Y-35433D03*
X52130Y-35433D03*
X49130Y-34528D03*
X52130Y-34528D03*
X49130Y-36339D03*
X52130Y-36339D03*
X49130Y-37244D03*
X52130Y-37244D03*
G54D15*
X58893Y-37328D03*
G54D14*
X59893Y-37328D03*
X60893Y-37328D03*
X61893Y-37328D03*
X61893Y-34328D03*
X60893Y-34328D03*
X59893Y-34328D03*
X58893Y-34328D03*
G54D15*
X55831Y-37244D03*
G54D14*
X52831Y-37244D03*
G54D15*
X56339Y-34406D03*
G54D14*
X56339Y-37406D03*
X57717Y-34382D03*
X57717Y-35382D03*
G54D12*
X63267Y-41654D03*
G54D13*
X63267Y-39489D03*
G54D14*
X49130Y-40118D03*
X52130Y-40118D03*
X49130Y-39213D03*
X52130Y-39213D03*
X49130Y-41024D03*
X52130Y-41024D03*
X49130Y-41929D03*
X52130Y-41929D03*
G54D15*
X58893Y-42013D03*
G54D14*
X59893Y-42013D03*
X60893Y-42013D03*
X61893Y-42013D03*
X61893Y-39013D03*
X60893Y-39013D03*
X59893Y-39013D03*
X58893Y-39013D03*
G54D15*
X55831Y-41929D03*
G54D14*
X52831Y-41929D03*
G54D15*
X56339Y-39091D03*
G54D14*
X56339Y-42091D03*
X57717Y-39067D03*
X57717Y-40067D03*
G54D16*
X57059Y-42008D03*
X58059Y-42008D03*
X57059Y-37323D03*
X58059Y-37323D03*
X57059Y-32638D03*
X58059Y-32638D03*
X57059Y-27953D03*
X58059Y-27953D03*
M02*
